Coordinates
version=1
nRows=19
nColumns=36
inDegrees=yes

Units are S.I. units (second, meters, Newtons, ...)
If the header above contains a line with 'inDegrees', this indicates whether rotational values are in degrees (yes) or radians (no).

endheader
time	pelvis_tilt	pelvis_list	pelvis_rotation	pelvis_tx	pelvis_ty	pelvis_tz	hip_flexion_r	hip_adduction_r	hip_rotation_r	knee_angle_r	knee_angle_r_beta	ankle_angle_r	subtalar_angle_r	mtp_angle_r	hip_flexion_l	hip_adduction_l	hip_rotation_l	knee_angle_l	knee_angle_l_beta	ankle_angle_l	subtalar_angle_l	mtp_angle_l	lumbar_extension	lumbar_bending	lumbar_rotation	arm_flex_r	arm_add_r	arm_rot_r	elbow_flex_r	pro_sup_r	arm_flex_l	arm_add_l	arm_rot_l	elbow_flex_l	pro_sup_l
      1.20000000	    -16.72148639	      0.35332355	     -8.38681380	      0.14129910	      1.24427310	     -0.09138388	     20.41129531	      2.69565247	      2.56318238	     38.02619411	      0.66368229	     27.69454986	    -11.29895447	     -7.49999935	     22.18352965	     -1.09750745	      4.48888785	     48.35606510	      0.84397255	     25.10362588	     -2.95428990	     -7.49999935	    -13.09033858	      4.44344640	    -18.18895145	     56.30644021	    -29.88771296	     16.42195008	     85.96778173	     96.27572054	    -42.88602001	    -44.45175210	    -86.46463710	    138.11448195	     76.00229613
      1.21666670	    -16.05255858	      0.27922496	     -7.94117679	      0.16077190	      1.26260583	     -0.08787121	     15.16772171	      2.59976921	      2.29359160	     33.45733750	      0.58394070	     23.07520563	    -12.47001926	     -7.49999948	     18.57122876	     -0.98920801	      5.04722731	     45.06033588	      0.78645122	     22.45419544	     -3.37216923	     -7.49999948	    -11.44375632	      4.13397263	    -17.26510554	     52.13451197	    -32.32893629	     14.04312354	     89.97596481	     95.98367134	    -42.42425004	    -45.84120408	    -82.32224250	    139.38267500	     78.88567624
      1.23333330	    -15.80083155	      0.63804108	     -7.74075732	      0.17975595	      1.28791543	     -0.08411879	     11.05730503	      1.92905919	      1.70491343	     29.21871261	      0.50996274	     17.87086880	    -12.86369753	     -7.49999956	     16.14752091	     -0.70447002	      5.24817739	     42.60168301	      0.74353964	     19.90282086	     -3.79872234	     -7.49999956	     -9.67164061	      3.50047408	    -14.54798337	     47.92115207	    -34.64491992	     10.39120556	     93.97552418	     95.17674133	    -37.27027273	    -48.13305240	    -73.84120696	    138.76891872	     82.10440914
      1.25000000	    -16.23381367	      1.29430859	     -7.74349961	      0.19141859	      1.29373102	     -0.08432160	     10.00304179	      0.88174437	      1.04424075	     28.29481321	      0.49383765	     12.89995761	    -13.29904097	     -7.49999964	     15.28756704	     -0.37560582	      5.03749438	     41.24670037	      0.71989073	     18.38738606	     -3.74875091	     -7.49999964	     -7.86159280	      2.91377867	    -13.11784470	     46.03503187	    -35.70800952	      9.14892455	     95.54196877	     93.89055765	    -34.21392744	    -49.38317246	    -68.74684603	    138.27625665	     83.61366583
      1.26666670	    -15.95449280	      1.94533934	     -7.50293256	      0.23755876	      1.30902311	     -0.07857568	      8.18577313	     -0.42569134	      0.19316262	     27.56235774	      0.48105389	      7.43617883	    -12.54909860	     -7.49999965	     13.88091742	      0.02639293	      5.03805779	     40.54079760	      0.70757040	     14.92958058	     -3.59391235	     -7.49999965	     -6.03276394	      2.09610484	    -13.64992045	     41.65228217	    -36.02184987	      9.30183357	     97.45170029	     93.48978720	    -37.06085623	    -45.32129770	    -66.78371167	    139.26501144	     83.65903022
      1.28333330	    -15.99869992	      2.81396228	     -7.88432441	      0.25856171	      1.33326932	     -0.07936487	      7.92956759	     -1.91530012	     -0.11784041	     28.37468519	      0.49523168	      0.08766523	    -11.71507516	     -7.49999970	     13.94333862	      0.47864557	      4.52071807	     40.86685147	      0.71326111	     10.40584261	     -4.01814737	     -7.49999970	     -4.96139516	      0.79393888	     -9.22800129	     30.35853677	    -38.13905299	      0.43657175	    101.56153537	     93.07910124	    -31.27924592	    -45.18982338	    -55.21674904	    137.67794095	     89.41936954
      1.30000000	    -15.79536331	      3.45610123	     -8.20414737	      0.28449123	      1.33638949	     -0.06972753	      9.21538507	     -3.26283197	     -0.10750645	     32.79381612	      0.57236007	     -6.92137998	    -11.50267438	     -7.49999975	     14.52646914	      0.38861825	      3.27249175	     42.39610418	      0.73995161	      6.33344702	     -4.20731681	     -7.49999975	     -4.11321682	     -0.13065065	     -6.84439024	     22.19512630	    -37.95438811	     -4.95957956	    102.98298693	     92.30628963	    -27.27850203	    -45.11917692	    -47.06060192	    134.56264346	     91.13336459
      1.31666670	    -15.52164589	      3.69179095	     -8.56118140	      0.30373842	      1.34247032	     -0.06495542	     12.02529315	     -4.03205336	      0.20307056	     39.69261168	      0.69276676	    -10.74863797	    -11.75551208	     -7.49999979	     16.70542334	     -0.36546815	      1.64905374	     46.42230941	      0.81022215	      2.44653554	     -5.54914407	     -7.49999979	     -3.79149826	     -0.53662280	     -4.24965123	     14.90944392	    -37.27454239	    -10.05224077	    103.59061623	     92.56900002	    -22.65771850	    -44.34761116	    -39.54545514	    131.77576798	     93.24671063
      1.33333330	    -14.94553565	      3.47724198	     -8.61977619	      0.31376557	      1.35126463	     -0.06003951	     16.56167298	     -4.23697865	      0.78867261	     48.82157250	      0.85209719	     -9.87455160	    -12.79595773	     -7.49999980	     19.37254595	     -1.72326204	      0.47905274	     50.50076287	      0.88140459	      0.07651434	     -7.24525210	     -7.49999980	     -4.64298594	     -0.40313428	     -4.51236136	     13.86461859	    -34.55883393	     -9.15246804	    101.12201438	     90.31984771	    -21.98125673	    -42.00536828	    -36.26147148	    129.81133342	     91.17929077
      1.35000000	    -14.06869597	      3.43131008	     -8.61135316	      0.32328179	      1.35249666	     -0.05505587	     22.19105626	     -4.57151734	      1.32032901	     57.87803485	      1.01016227	     -4.50682303	    -12.31136937	     -7.49999981	     22.98521963	     -3.04235206	     -0.37873767	     55.26626293	      0.96457825	     -0.41798377	     -8.52133929	     -7.49999981	     -6.60936127	     -0.57340127	     -4.45036626	     12.69899936	    -32.15446957	     -8.56618924	     99.07328880	     88.82130860	    -20.98421605	    -40.37740617	    -34.09493741	    128.20284811	     89.78947141
      1.36666670	    -12.89054789	      3.15232846	     -8.24063411	      0.33313901	      1.35799797	     -0.05759567	     26.22537307	     -5.00672271	      1.27047644	     63.75682020	      1.11276643	     -0.25571160	    -11.74529155	     -7.49999982	     25.59425262	     -4.01221615	     -0.48402581	     57.94652109	      1.01135758	     -0.79325527	    -10.36251111	     -7.49999982	     -9.21097780	     -0.20167148	     -4.33812831	     13.40302655	    -30.20086020	     -8.15560316	     94.91562204	     88.13612436	    -18.95632833	    -38.69923143	    -30.64158289	    125.02581439	     89.35486308
      1.38333330	    -10.90786069	      2.91083919	     -7.85104939	      0.36505832	      1.35756729	     -0.05885522	     27.49786851	     -6.32724021	      1.08461951	     65.96383940	      1.15128618	      0.23088623	     -9.81881288	     -7.49999982	     26.18754449	     -4.27354319	     -0.50583501	     58.55451463	      1.02196907	      0.11665146	    -10.71052669	     -7.49999982	    -11.13572030	     -0.01662610	     -3.83032425	     15.20280624	    -28.34898444	     -7.23571428	     89.21912042	     88.54868905	    -16.91634759	    -37.04667888	    -26.06582562	    121.16451442	     89.90901184
      1.40000000	     -9.58900335	      2.54959568	     -7.55646771	      0.38243648	      1.35465778	     -0.06290715	     28.20489971	     -7.30952552	      0.90041780	     63.71015964	      1.11195205	     -0.12812052	     -7.99693603	     -7.49999983	     26.02074508	     -4.71343235	     -0.96575042	     55.66296661	      0.97150204	     -0.78171304	    -10.22967865	     -7.49999983	    -12.32665028	      0.90777439	     -4.21364555	     17.32671737	    -27.13377770	     -6.05462825	     83.64877667	     90.31706539	    -14.60488484	    -35.05109671	    -23.20686477	    118.14502232	     91.10099003
      1.41666670	     -8.41501275	      2.15917445	     -7.25342376	      0.39752529	      1.34370565	     -0.06073187	     28.98959615	     -7.85747413	      0.76115753	     60.93606890	      1.06353504	      0.47500063	     -6.63972286	     -7.49999983	     25.88340880	     -5.43519770	     -1.80347608	     52.54896428	      0.91715245	     -2.95555432	    -10.82599638	     -7.49999983	    -13.26881330	      1.80658022	     -5.10926364	     18.17654227	    -25.79743640	     -5.68556176	     80.57324952	     90.41950365	    -13.03469215	    -33.55856177	    -22.08504784	    116.24364575	     90.96107628
      1.43333330	     -7.77366207	      1.65876272	     -6.81609154	      0.41287751	      1.33692408	     -0.05259596	     29.60201775	     -8.03690075	     -0.13631288	     56.32334646	      0.98302784	     -0.83759281	     -5.84609989	     -7.49999983	     26.69221664	     -6.49941889	     -2.60308054	     49.14016625	      0.85765770	     -6.70739551	    -11.91799725	     -7.49999983	    -14.52834435	      2.42558269	     -5.85521543	     17.06673484	    -24.55871259	     -5.59045161	     78.62550051	     90.47703902	    -12.69812099	    -32.71343266	    -21.75308315	    114.89557366	     90.81027797
      1.45000000	     -7.22158546	      1.21557734	     -6.78385618	      0.44215091	      1.30771395	     -0.04163292	     30.39982559	     -7.98598733	     -0.63981134	     53.55394052	      0.93469259	     -2.41228491	     -5.54462694	     -7.49999983	     26.84259688	     -7.58999400	     -3.15553962	     46.29640503	      0.80802470	     -9.01585050	    -13.27520755	     -7.49999983	    -14.99485996	      2.47184149	     -6.29264481	     14.11320119	    -23.45243373	     -5.87085479	     79.54697519	     90.93678479	    -14.85004944	    -32.66076993	    -22.58686618	    116.30373982	     90.86768334
      1.46666670	     -7.06621086	      0.80850144	     -6.57266808	      0.45832587	      1.29018183	     -0.03983155	     31.22774699	     -7.73276977	     -1.30879069	     48.25619766	      0.84222953	     -4.77720630	     -4.19006497	     -7.49999984	     28.15095270	     -8.21504250	     -2.98669929	     43.47324251	      0.75875122	     -9.14931507	    -13.29719498	     -7.49999984	    -15.86635131	      2.58220658	     -7.23018349	     15.03334954	    -22.43378674	     -2.92580118	     77.70457203	     91.85055170	    -19.16602063	    -31.70926009	    -25.17663257	    120.00020265	     92.38182752
      1.48333330	     -6.17795493	      0.59140813	     -6.46924083	      0.49196380	      1.27749014	     -0.04655662	     29.28907030	     -8.37503634	     -2.09948253	     41.51228872	      0.72452612	     -8.17689212	     -2.92387198	     -7.49999984	     27.17398845	     -8.33385922	     -3.95967737	     38.64671177	      0.67451237	    -12.43901992	    -13.42585183	     -7.49999984	    -16.44093499	      2.94381889	     -7.11223462	     13.32294141	    -22.68918254	     -1.71480407	     76.61672925	     91.84320179	    -20.28507215	    -30.70491900	    -23.56810206	    119.89941099	     92.56188371
      1.50000000	     -5.32167403	      0.58259639	     -6.26704613	      0.51435916	      1.25066030	     -0.04571215	     27.83936884	     -8.82506369	     -2.58327513	     35.48866520	      0.61939405	    -11.03906326	     -1.54535565	     -7.49999984	     26.35646276	     -8.00021841	     -4.84129093	     34.67123493	      0.60512721	    -14.47152919	    -12.95012312	     -7.49999984	    -16.60406804	      2.87740308	     -7.14416030	     10.35197377	    -23.39526040	     -0.58649395	     76.89818982	     91.89883123	    -21.99576463	    -29.88111553	    -22.35573127	    121.25149657	     93.01555989
